<svg aria-hidden="true" style="position: absolute; width: 0; height: 0; overflow: hidden;" version="1.1" xmlns="http://www.w3.org/2000/svg" xmlns:xlink="http://www.w3.org/1999/xlink">
<defs>
<symbol id="icon-facebook" viewBox="0 0 32 32">
<path stroke-linejoin="round" stroke-linecap="round" stroke-miterlimit="4" stroke-width="2.2857" d="M24 2.667h-4c-1.768 0-3.464 0.702-4.714 1.953s-1.953 2.946-1.953 4.714v4h-4v5.333h4v10.667h5.333v-10.667h4l1.333-5.333h-5.333v-4c0-0.354 0.14-0.693 0.39-0.943s0.589-0.391 0.943-0.391h4v-5.333z"></path>
</symbol>
<symbol id="icon-instagram" viewBox="0 0 32 32">
<path stroke-linejoin="round" stroke-linecap="round" stroke-miterlimit="4" stroke-width="2.2857" d="M22.666 2.667h-13.333c-3.682 0-6.667 2.985-6.667 6.667v13.333c0 3.682 2.985 6.667 6.667 6.667h13.333c3.682 0 6.667-2.985 6.667-6.667v-13.333c0-3.682-2.985-6.667-6.667-6.667z"></path>
<path stroke-linejoin="round" stroke-linecap="round" stroke-miterlimit="4" stroke-width="2.2857" d="M21.333 15.16c0.164 1.11-0.025 2.243-0.542 3.239s-1.334 1.803-2.336 2.308c-1.002 0.504-2.137 0.68-3.245 0.502s-2.131-0.701-2.924-1.494c-0.793-0.793-1.316-1.816-1.494-2.924s-0.003-2.243 0.502-3.245c0.504-1.002 1.312-1.82 2.307-2.336s2.129-0.706 3.239-0.542c1.132 0.168 2.18 0.695 2.989 1.504s1.337 1.857 1.504 2.989z"></path>
<path stroke-linejoin="round" stroke-linecap="round" stroke-miterlimit="4" stroke-width="2.2857" d="M23.334 8.667h0.013"></path>
</symbol>
<symbol id="icon-tel" viewBox="0 0 32 32">
<path d="M29.387 5.978l-3.905-3.901c-0.477-0.477-1.115-0.744-1.789-0.744s-1.313 0.264-1.789 0.744l-4.206 4.198c-0.477 0.477-0.744 1.118-0.744 1.793 0 0.678 0.264 1.313 0.744 1.793l3.285 3.289c-0.748 1.744-1.824 3.328-3.168 4.667-1.346 1.353-2.919 2.42-4.664 3.175l-3.285-3.289c-0.477-0.477-1.115-0.744-1.789-0.744-0.333-0.001-0.662 0.064-0.97 0.192s-0.586 0.316-0.82 0.552l-4.209 4.198c-0.477 0.477-0.744 1.118-0.744 1.793 0 0.678 0.264 1.312 0.744 1.793l3.901 3.901c0.814 0.814 1.936 1.279 3.087 1.279 0.238 0 0.469-0.018 0.704-0.059 4.855-0.799 9.673-3.384 13.563-7.27 3.887-3.893 6.468-8.711 7.275-13.569 0.231-1.379-0.231-2.797-1.221-3.791zM28.008 9.333c-0.715 4.322-3.040 8.634-6.541 12.135s-7.81 5.826-12.133 6.541c-0.543 0.092-1.1-0.092-1.496-0.484l-3.832-3.831 4.063-4.066 4.426 4.432 0.792-0.293c2.401-0.883 4.582-2.277 6.391-4.086s3.203-3.99 4.085-6.392l0.293-0.792-4.429-4.425 4.063-4.066 3.832 3.831c0.396 0.396 0.579 0.953 0.488 1.496z"></path>
</symbol>
</defs>
</svg>
