<svg aria-hidden="true" style="position: absolute; width: 0; height: 0; overflow: hidden;" version="1.1" xmlns="http://www.w3.org/2000/svg" xmlns:xlink="http://www.w3.org/1999/xlink">
<defs>
<symbol id="icon-facebook" viewBox="0 0 32 32">
<path stroke-linejoin="round" stroke-linecap="round" stroke-miterlimit="4" stroke-width="2.2857" d="M24 2.667h-4c-1.768 0-3.464 0.702-4.714 1.953s-1.953 2.946-1.953 4.714v4h-4v5.333h4v10.667h5.333v-10.667h4l1.333-5.333h-5.333v-4c0-0.354 0.14-0.693 0.39-0.943s0.589-0.391 0.943-0.391h4v-5.333z"></path>
</symbol>
<symbol id="icon-instagram" viewBox="0 0 32 32">
<path stroke-linejoin="round" stroke-linecap="round" stroke-miterlimit="4" stroke-width="2.2857" d="M22.666 2.667h-13.333c-3.682 0-6.667 2.985-6.667 6.667v13.333c0 3.682 2.985 6.667 6.667 6.667h13.333c3.682 0 6.667-2.985 6.667-6.667v-13.333c0-3.682-2.985-6.667-6.667-6.667z"></path>
<path stroke-linejoin="round" stroke-linecap="round" stroke-miterlimit="4" stroke-width="2.2857" d="M21.333 15.16c0.164 1.11-0.025 2.243-0.542 3.239s-1.334 1.803-2.336 2.308c-1.002 0.504-2.137 0.68-3.245 0.502s-2.131-0.701-2.924-1.494c-0.793-0.793-1.316-1.816-1.494-2.924s-0.003-2.243 0.502-3.245c0.504-1.002 1.312-1.82 2.307-2.336s2.129-0.706 3.239-0.542c1.132 0.168 2.18 0.695 2.989 1.504s1.337 1.857 1.504 2.989z"></path>
<path stroke-linejoin="round" stroke-linecap="round" stroke-miterlimit="4" stroke-width="2.2857" d="M23.334 8.667h0.013"></path>
</symbol>
<symbol id="icon-tel" viewBox="0 0 32 32">
<path d="M29.387 5.978l-3.905-3.901c-0.477-0.477-1.115-0.744-1.789-0.744s-1.313 0.264-1.789 0.744l-4.206 4.198c-0.477 0.477-0.744 1.118-0.744 1.793 0 0.678 0.264 1.313 0.744 1.793l3.285 3.289c-0.748 1.744-1.824 3.328-3.168 4.667-1.346 1.353-2.919 2.42-4.664 3.175l-3.285-3.289c-0.477-0.477-1.115-0.744-1.789-0.744-0.333-0.001-0.662 0.064-0.97 0.192s-0.586 0.316-0.82 0.552l-4.209 4.198c-0.477 0.477-0.744 1.118-0.744 1.793 0 0.678 0.264 1.312 0.744 1.793l3.901 3.901c0.814 0.814 1.936 1.279 3.087 1.279 0.238 0 0.469-0.018 0.704-0.059 4.855-0.799 9.673-3.384 13.563-7.27 3.887-3.893 6.468-8.711 7.275-13.569 0.231-1.379-0.231-2.797-1.221-3.791zM28.008 9.333c-0.715 4.322-3.040 8.634-6.541 12.135s-7.81 5.826-12.133 6.541c-0.543 0.092-1.1-0.092-1.496-0.484l-3.832-3.831 4.063-4.066 4.426 4.432 0.792-0.293c2.401-0.883 4.582-2.277 6.391-4.086s3.203-3.99 4.085-6.392l0.293-0.792-4.429-4.425 4.063-4.066 3.832 3.831c0.396 0.396 0.579 0.953 0.488 1.496z"></path>
</symbol>
<symbol id="icon-arrow-left" viewBox="0 0 50 32">
<path stroke-linejoin="miter" stroke-linecap="butt" stroke-miterlimit="4" stroke-width="1.1852" d="M48.593 16c0 8.509-6.898 15.407-15.407 15.407s-15.407-6.898-15.407-15.407c0-8.509 6.898-15.407 15.407-15.407s15.407 6.898 15.407 15.407z"></path>
<path d="M0.174 16.174c-0.231 0.231-0.231 0.607 0 0.838l3.771 3.771c0.231 0.231 0.607 0.231 0.838 0s0.231-0.607 0-0.838l-3.352-3.352 3.352-3.352c0.231-0.231 0.231-0.607 0-0.838s-0.607-0.231-0.838 0l-3.771 3.771zM0.593 17.185h33.185v-1.185h-33.185v1.185z"></path>
</symbol>
<symbol id="icon-arrow-right" viewBox="0 0 50 32">
<path stroke-linejoin="miter" stroke-linecap="butt" stroke-miterlimit="4" stroke-width="1.1852" d="M31.407 16c0 8.509-6.898 15.407-15.407 15.407s-15.407-6.898-15.407-15.407c0-8.509 6.898-15.407 15.407-15.407s15.407 6.898 15.407 15.407z"></path>
<path d="M49.012 15.826c0.231-0.231 0.231-0.607 0-0.838l-3.771-3.771c-0.231-0.231-0.607-0.231-0.838 0s-0.231 0.607 0 0.838l3.352 3.352-3.352 3.352c-0.231 0.231-0.231 0.607 0 0.838s0.607 0.231 0.838 0l3.771-3.771zM15.407 16h33.185v-1.185h-33.185v1.185z"></path>
</symbol>
<symbol id="icon-burger" viewBox="0 0 18 16">
<path d="M0 0H18V2H0V0ZM6 7H18V9H6V7ZM0 14H18V16H0V14Z" fill="black" />
</symbol>
<symbol id="icon-logo" viewBox="0 0 46 36">
<path d="M18.2716 35.0369V29.5061L18.0247 28.469V19.0369C18.0247 17.0287 17.4321 15.4814 16.2469 14.395C15.0947 13.2756 13.3498 12.716 11.0123 12.716C9.46502 12.716 7.95062 12.9793 6.46914 13.5061C4.98765 13.9999 3.73663 14.6748 2.71605 15.5308L0.740741 11.9752C2.09054 10.8888 3.7037 10.0657 5.58025 9.50608C7.48971 8.91348 9.48148 8.61719 11.5556 8.61719C15.144 8.61719 17.9095 9.48962 19.8519 11.2345C21.7942 12.9793 22.7654 15.646 22.7654 19.2345V35.0369H18.2716ZM9.67901 35.3332C7.73663 35.3332 6.02469 35.004 4.54321 34.3456C3.09465 33.6872 1.97531 32.7818 1.18519 31.6295C0.395062 30.4444 0 29.111 0 27.6295C0 26.2139 0.329218 24.9299 0.987654 23.7777C1.67901 22.6254 2.78189 21.7036 4.2963 21.0123C5.84362 20.3209 7.9177 19.9752 10.5185 19.9752H18.8148V23.3826H10.7161C8.34568 23.3826 6.74897 23.7777 5.92593 24.5678C5.10288 25.3579 4.69136 26.3127 4.69136 27.432C4.69136 28.716 5.20165 29.753 6.22222 30.5431C7.2428 31.3003 8.65844 31.6789 10.4691 31.6789C12.2469 31.6789 13.7942 31.2839 15.1111 30.4937C16.4609 29.7036 17.4321 28.5513 18.0247 27.0369L18.963 30.2962C18.3375 31.8435 17.2346 33.0781 15.6543 33.9999C14.0741 34.8888 12.0823 35.3332 9.67901 35.3332Z" fill="#0E0E0E" />
<path d="M33.4325 35.3332C30.6341 35.3332 28.165 34.7571 26.0251 33.6048C23.9181 32.4526 22.272 30.8723 21.0868 28.8641C19.9345 26.8559 19.3584 24.5513 19.3584 21.9505C19.3584 19.3497 19.9181 17.0452 21.0374 15.0369C22.1897 13.0287 23.7535 11.4649 25.7288 10.3456C27.737 9.19332 29.9921 8.61719 32.4942 8.61719C35.0292 8.61719 37.2679 9.17686 39.2103 10.2962C41.1526 11.4155 42.667 12.9958 43.7535 15.0369C44.8728 17.0452 45.4325 19.3991 45.4325 22.0987C45.4325 22.2962 45.416 22.5267 45.3831 22.79C45.3831 23.0534 45.3666 23.3003 45.3337 23.5308H23.0621V20.1234H42.8646L40.9387 21.3085C40.9716 19.6295 40.6259 18.1316 39.9016 16.8147C39.1773 15.4978 38.1732 14.4773 36.8893 13.753C35.6382 12.9958 34.1732 12.6172 32.4942 12.6172C30.8481 12.6172 29.3831 12.9958 28.0991 13.753C26.8152 14.4773 25.8111 15.5143 25.0868 16.8641C24.3625 18.181 24.0004 19.6954 24.0004 21.4073V22.1974C24.0004 23.9423 24.3954 25.5061 25.1856 26.8888C26.0086 28.2386 27.1444 29.2921 28.593 30.0493C30.0415 30.8065 31.7041 31.1851 33.5806 31.1851C35.1279 31.1851 36.5271 30.9217 37.7782 30.395C39.0621 29.8682 40.1814 29.0781 41.1362 28.0246L43.7535 31.0863C42.5683 32.469 41.0868 33.5225 39.309 34.2468C37.5642 34.9711 35.6053 35.3332 33.4325 35.3332Z" fill="#0E0E0E" />
<path fill-rule="evenodd" clip-rule="evenodd" d="M41.9754 3.7037H24.6914V0H41.9754V3.7037Z" fill="#0E0E0E" />
</symbol>
<symbol id="icon-close-button" viewBox="0 0 24 24">
<g filter="url(#filter0_d_147_3)">
    <path d="M18 6L6 18" stroke="white" stroke-width="2" stroke-linecap="round" stroke-linejoin="round" />
    <path d="M6 6L18 18" stroke="white" stroke-width="2" stroke-linecap="round" stroke-linejoin="round" />
  </g>
  <defs>
    <filter id="filter0_d_147_3" x="-4" y="0" width="32" height="32" filterUnits="userSpaceOnUse" color-interpolation-filters="sRGB">
      <feFlood flood-opacity="0" result="BackgroundImageFix" />
      <feColorMatrix in="SourceAlpha" type="matrix" values="0 0 0 0 0 0 0 0 0 0 0 0 0 0 0 0 0 0 127 0" result="hardAlpha" />
      <feOffset dy="4" />
      <feGaussianBlur stdDeviation="2" />
      <feComposite in2="hardAlpha" operator="out" />
      <feColorMatrix type="matrix" values="0 0 0 0 0 0 0 0 0 0 0 0 0 0 0 0 0 0 0.25 0" />
      <feBlend mode="normal" in2="BackgroundImageFix" result="effect1_dropShadow_147_3" />
      <feBlend mode="normal" in="SourceGraphic" in2="effect1_dropShadow_147_3" result="shape" />
    </filter>
  </defs>
  </symbol>
</defs>
</svg>
